<!--?xml version="1.0" encoding="utf-8"?-->
<!-- Generator: Adobe Illustrator 22.1.0, SVG Export Plug-In . SVG Version: 6.00 Build 0)  -->
<svg version="1.1" id="_x30_" xmlns="http://www.w3.org/2000/svg" xmlns:xlink="http://www.w3.org/1999/xlink" x="0px" y="0px" viewBox="0 0 800 499.7" style="enable-background:new 0 0 800 499.7;" xml:space="preserve">
<style type="text/css">
	.stblack{fill:#000000;}
	.st0{fill:#FFFFFF;}
</style>
<g>
	<path class="st0" d="M496,458.1c-11.3-31.4-23-56.2-115.8-58.1c-112.8-2.4-216,0-297.6-64.8S58.8,137.3,128.2,90.4
		c81.6-55.2,362.4-67.2,501.6-28.8C769,100,785.8,176.8,778.6,232c-7.2,55.2-52.8,120-108,144c-55.2,24-93.6,14.4-134.4,36
		c-17.8,9.4-31.9,28.5-40.2,47L496,458.1L496,458.1z"></path>
	<path class="stblack" d="M535.7,394.9c7.3-3,16.4-5.8,27.2-7.9c10.8-2.2,23.4-4,37.4-6.5c13.9-2.6,29.2-6.3,44.8-12.2c3.9-1.4,7.8-3.2,11.7-4.8
		c2-1,3.9-1.9,5.9-2.9c2-1,4-1.9,5.9-3c1.9-1.1,3.8-2.3,5.8-3.4c1.9-1.2,3.9-2.3,5.8-3.6c1.9-1.3,3.8-2.6,5.6-3.9
		c0.9-0.7,1.9-1.3,2.8-2c0.9-0.7,1.8-1.4,2.7-2.2c14.6-11.5,28.1-25.6,40-41.7c11.7-16.2,21.8-34.3,29.1-54.3
		c0.8-2.5,1.6-5.1,2.4-7.6c0.4-1.3,0.9-2.5,1.2-3.8l1-3.9l1-3.9c0.3-1.3,0.7-2.6,0.9-4c0.5-2.7,0.9-5.4,1.4-8.1
		c0.8-5.4,1.3-10.8,1.5-16.3c0.2-5.5,0.2-11-0.2-16.5c-0.7-11.1-2.8-22.2-6.3-32.9c-3.5-10.7-8.5-21-14.7-30.5
		c-6.2-9.5-13.7-18.1-21.9-25.8c-8.2-7.7-17.2-14.6-26.5-20.6c-9.4-6-19.2-11.2-29.1-15.9c-2.5-1.1-5-2.3-7.5-3.4
		c-2.5-1.1-5.1-2.1-7.6-3.1c-5-2.1-10.2-3.9-15.3-5.8c-20.4-7.1-41.2-12.4-61.7-16.3c-20.5-4-40.6-6.8-60.2-8.9
		c-19.6-2.2-38.6-3.6-56.8-4.6c-9.1-0.6-18-0.8-26.7-1.2c-4.4-0.2-8.6-0.2-12.9-0.3c-4.2-0.1-8.4-0.2-12.5-0.2
		c-33-0.4-62,0.3-85.7,1.5c-23.6,2-52.6,5-85.2,10.3c-16.3,2.7-33.5,6-51.4,10.3c-17.9,4.4-36.4,9.8-54.9,17.9
		c-9.3,3.9-18.5,9-27.2,15c-8.6,6.1-16.5,13.2-23.9,20.8c-14.8,15.4-27.3,33.1-37.6,52.5c-10.1,19.4-17.8,40.4-21.7,62.5
		c-1.8,11.1-2.6,22.4-2.1,33.7c0.6,11.3,2.6,22.7,6.3,33.5c3.7,10.8,9.1,21.1,16,30.2c1.8,2.2,3.6,4.4,5.4,6.6c2,2,3.9,4.1,5.9,6.1
		c0.9,1.1,2.1,1.9,3.1,2.8l3.2,2.8c2.1,1.9,4.3,3.5,6.4,5.1c8.7,6.6,17.6,12.7,27,18c9.3,5.3,18.8,10,28.5,14.1
		c9.6,4.1,19.4,7.6,29.2,10.6c9.7,3,19.5,5.5,29.1,7.5c19.3,4.1,38.1,6.7,56.1,8.5c18,1.8,35.2,2.7,51.4,3.5
		c16.2,0.7,31.3,1.1,45.2,1.5c7,0.2,13.6,0.4,20,0.6c3.2,0.1,6.3,0.2,9.3,0.3c3,0.1,5.9,0.2,8.7,0.4c11.2,0.6,20.9,1.5,29.1,2.6
		c2.1,0.3,4.4,0.8,6.9,1.3c2.4,0.6,5.1,1.2,7.8,2.1c5.4,1.6,11.1,3.8,16.6,6.5c5.5,2.7,10.5,6.1,14.4,9.8c1.9,1.9,3.7,3.8,5.1,6
		c0.4,0.5,0.8,1,1.1,1.6l1,1.6c0.6,1.1,1.3,2.2,1.8,3.4c2.4,4.6,4.3,9.9,6.4,15c2.1,5.1,4.3,10.1,6.7,14.1c2.5,4,5.2,6.9,7.9,8.3
		c2.7,1.4,5.4,1.3,8-0.6c3.5-2.5,5.6-5.9,6.7-10c1.1-4.1,1.2-9,0.5-14.7c-0.4-2.9-0.9-6-1.8-9.4c-0.4-1.7-1-3.5-1.6-5.3
		c-0.7-1.8-1.3-3.7-2.2-5.6c-3.3-7.7-9-16.4-16.9-23.1c-3.9-3.3-8.2-6.2-12.7-8.4l-1.7-0.9l-1.7-0.7l-3.4-1.4
		c-2.2-0.8-4.5-1.6-6.7-2.3c-8.9-2.6-17.5-3.8-25.5-4.6c-15.9-1.3-29.3-0.7-38-1.1c-11.4-0.7-32.7-0.9-61.4-1.5
		c-14.3-0.3-30.5-0.7-48.2-1.7c-8.8-0.5-18-1.1-27.5-1.9c-9.5-0.8-19.2-1.9-29.2-3.2c-20-2.8-40.9-6.9-61.9-13.5
		c-20.9-6.7-41.8-16-61.2-28.6l-3.6-2.4l-3.6-2.5l-3.6-2.5c-1.2-0.9-2.3-1.8-3.5-2.6l-3.5-2.7c-1.2-0.9-2.2-1.8-3.3-2.7
		c-2.1-1.9-4.3-3.6-6.2-5.7c-8-7.9-14.5-17.3-19.2-27.6c-4.7-10.3-7.4-21.6-8.5-33.1c-1.1-11.5-0.5-23.2,1.4-34.8
		c3.8-23.1,12.6-45.4,24-65.4c11.5-20,25.7-37.9,41.8-52.1c2-1.8,4.1-3.4,6.1-5.1c2-1.7,4.2-3.2,6.3-4.7l1.6-1.1
		c0.5-0.4,1.1-0.7,1.6-1c1.1-0.7,2.2-1.3,3.3-2c1.1-0.7,2.1-1.3,3.2-2c1.1-0.6,2.3-1.2,3.4-1.8c1.1-0.6,2.3-1.2,3.4-1.7l1.7-0.9
		l1.8-0.8c2.3-1,4.7-2,7-3.1c2.3-1,4.7-1.8,7.1-2.7c2.4-0.9,4.7-1.8,7-2.6c18.9-6.4,37.4-10.8,54.5-14.3c34.4-6.9,63.4-10,83.6-12
		c5.1-0.5,9.6-0.9,13.5-1.2c3.9-0.3,7.3-0.6,10-0.8c2.7-0.2,4.8-0.4,6.2-0.5c1.4-0.1,2.1-0.1,2.1-0.1s2.9-0.2,8.3-0.5
		c5.4-0.4,13.4-0.7,23.5-1.2c20.3-0.8,49.5-1.5,84.7-0.4c8.8,0.2,18,0.7,27.5,1.1c9.5,0.6,19.3,1.2,29.5,2.1
		c20.2,1.7,41.6,4.1,63.5,7.8c22,3.7,44.4,8.5,66.7,15.8c11.1,3.6,22.2,7.8,33,12.6c10.8,4.8,21.3,10.4,31.2,16.8
		c9.9,6.4,19.2,13.7,27.4,22c1,1,2.1,2.1,3.1,3.1l2.9,3.3l1.5,1.6l1.4,1.7l2.7,3.4c3.4,4.7,6.7,9.4,9.4,14.5
		c1.5,2.5,2.6,5.1,3.9,7.7c1.1,2.7,2.3,5.2,3.2,8c2,5.4,3.5,10.9,4.6,16.5c0.6,2.8,1,5.6,1.4,8.4c0.3,2.8,0.7,5.7,0.8,8.5
		c0.4,5.7,0.4,11.4,0,17c-0.3,5.7-0.9,11.3-2,16.8l-0.7,4.1c-0.3,1.4-0.7,2.7-1,4.1c-0.3,1.3-0.7,2.7-1,4l-0.5,2
		c-0.2,0.7-0.4,1.3-0.6,2c-0.9,2.6-1.7,5.3-2.6,7.9c-1,2.6-2,5.1-3,7.7c-0.5,1.3-1,2.6-1.6,3.8c-0.6,1.2-1.2,2.5-1.7,3.7
		c-0.6,1.2-1.2,2.5-1.7,3.7l-0.9,1.8l-1,1.8c-1.3,2.4-2.6,4.8-3.9,7.1c-1.3,2.4-2.8,4.6-4.1,6.9c-2.7,4.6-5.9,8.8-8.8,13.1
		c-6.3,8.3-12.7,16.2-19.7,23.2c-0.9,0.9-1.7,1.8-2.6,2.6l-1.3,1.3l-1.4,1.2c-1.8,1.6-3.6,3.2-5.4,4.8c-1.7,1.7-3.6,3.1-5.4,4.5
		c-1.8,1.5-3.6,2.9-5.5,4.3c-7.5,5.3-14.9,10.1-22.5,13.7c-1.9,0.9-3.7,1.8-5.6,2.7c-1.9,0.8-3.9,1.6-5.8,2.3
		c-3.8,1.6-7.6,2.9-11.2,4.2c-1.8,0.7-3.7,1.2-5.5,1.8c-1.8,0.5-3.6,1.1-5.4,1.6c-3.6,0.9-7,1.8-10.4,2.6
		c-13.6,3.1-25.8,4.8-36.1,6.4c-10.2,1.6-18.4,3-24.1,4.3c-2.2,0.5-4.7,1-7.4,1.5c-1.4,0.3-2.8,0.6-4.3,0.9
		c-1.5,0.3-3.1,0.7-4.7,1.1c-1.6,0.4-3.3,0.7-5,1.2c-1.7,0.5-3.5,1-5.3,1.6c-0.9,0.3-1.8,0.5-2.7,0.8c-0.9,0.3-1.8,0.7-2.7,1
		c-1.9,0.7-3.8,1.4-5.7,2.1c-8.3,3.5-16.4,8.8-23.1,15.3c-3.5,3.2-6.5,6.7-9.5,10.2c-2.8,3.6-5.5,7.3-7.8,11.1
		c-9.3,15.1-14.4,30.7-15.3,43c-0.9,12.3,2.4,21.4,10.5,24.2c6,2,10.2-1.9,14-9.4c3.7-7.5,7.1-18.5,11.3-30.3
		c4.2-11.7,9.6-24.2,16.8-33.6c3.5-4.7,7.5-8.7,11.5-11.5c0.9-0.8,2.2-1.4,3.3-2.1c1.1-0.7,2.2-1.3,3.3-1.9c1-0.6,2.1-1.1,3.1-1.6
		C533.8,395.8,534.8,395.4,535.7,394.9z"></path>
</g>
</svg>
